<?xml version="1.0" encoding="UTF-8"?>
<svg version="1.1" xmlns="http://www.w3.org/2000/svg" width="500" height="500">
<path d="M0 0 C165 0 330 0 500 0 C500 165 500 330 500 500 C335 500 170 500 0 500 C0 335 0 170 0 0 Z " fill="#FEDC00" transform="translate(0,0)"/>
<path d="M0 0 C3.43092386 2.11223544 5.05047087 4.34179432 6.94140625 7.94140625 C7.41658691 8.8240918 7.41658691 8.8240918 7.90136719 9.72460938 C8.64093117 11.10285672 9.371877 12.48574811 10.09619141 13.87207031 C11.56756894 16.67592106 13.07115319 19.46121338 14.578125 22.24609375 C16.98839496 26.70281933 19.39039109 31.16383004 21.78515625 35.62890625 C25.04554782 41.70286913 28.32954462 47.7635392 31.62890625 53.81640625 C32.11302979 54.7094043 32.59715332 55.60240234 33.09594727 56.52246094 C35.43949071 60.83131395 37.82401627 65.1050178 40.3125 69.33203125 C40.77688477 70.13189453 41.24126953 70.93175781 41.71972656 71.75585938 C42.58022331 73.23224465 43.45460922 74.70067837 44.34667969 76.15820312 C47.34480396 81.33291052 48.59992828 86.30334413 48.37890625 92.31640625 C47.07850226 96.7073101 45.13086977 99.54516162 41.94140625 102.81640625 C36.53847568 105.09132439 31.1013124 105.69790247 25.37890625 104.31640625 C16.49411491 99.48874496 12.64539834 89.23464555 8.31640625 80.62890625 C7.16579077 78.3788407 6.01025808 76.13136477 4.85342407 73.88449097 C4.10243441 72.42523086 3.35384114 70.96473476 2.60775757 69.50296021 C-0.19270642 64.04509422 -3.21238778 58.76858849 -6.40405273 53.52807617 C-7.62109375 51.31640625 -7.62109375 51.31640625 -7.62109375 49.31640625 C-8.28109375 49.31640625 -8.94109375 49.31640625 -9.62109375 49.31640625 C-9.84023437 50.10015625 -10.059375 50.88390625 -10.28515625 51.69140625 C-12.06138662 56.51111906 -14.49857602 60.83669392 -16.99609375 65.31640625 C-18.08148382 67.27301906 -19.16609585 69.23006364 -20.25 71.1875 C-20.80703613 72.19280762 -21.36407227 73.19811523 -21.93798828 74.23388672 C-23.60980804 77.29573707 -25.22965568 80.37989577 -26.8359375 83.4765625 C-27.35559082 84.46591797 -27.87524414 85.45527344 -28.41064453 86.47460938 C-29.40257441 88.36624096 -30.38209659 90.26444761 -31.34716797 92.16992188 C-34.19884537 97.55408153 -36.93343764 101.73353385 -42.62109375 104.31640625 C-48.42987519 105.41795373 -53.84702099 105.11168025 -59.24609375 102.69140625 C-63.5790262 98.3584738 -64.80984854 94.82624708 -65.05078125 88.7734375 C-64.9715327 81.76680874 -62.54817779 77.32143645 -58.87109375 71.50390625 C-57.66570418 69.49041216 -56.46397543 67.47472268 -55.265625 65.45703125 C-54.65412598 64.43931641 -54.04262695 63.42160156 -53.41259766 62.37304688 C-50.61134033 57.59357812 -48.08300726 52.6836254 -45.55859375 47.75390625 C-40.2084067 37.38270618 -34.67412515 27.12056121 -29.03540039 16.90356445 C-28.02638868 15.05780283 -27.0323901 13.20380114 -26.04858398 11.34448242 C-25.52723877 10.36455322 -25.00589355 9.38462402 -24.46875 8.375 C-23.99961182 7.48353271 -23.53047363 6.59206543 -23.04711914 5.67358398 C-17.86653452 -2.88976896 -8.75757404 -4.07175233 0 0 Z " fill="#F6F8F9" transform="translate(256.62109375,291.68359375)"/>
<path d="M0 0 C7.4639398 3.7319699 11.22967254 10.76663761 15.5 17.625 C16.57672428 19.34250976 17.65354992 21.05995597 18.73046875 22.77734375 C19.27622559 23.64987793 19.82198242 24.52241211 20.38427734 25.42138672 C22.36865729 28.58835876 24.36690109 31.74640408 26.36645508 34.90380859 C32.16901861 44.06760722 37.92307918 53.26141625 43.66137695 62.46557617 C44.25394287 63.41537354 44.84650879 64.3651709 45.45703125 65.34375 C46.03622314 66.27678955 46.61541504 67.2098291 47.2121582 68.17114258 C48.44226116 70.11750376 49.70040415 72.04633389 50.98120117 73.9597168 C51.93410034 75.39311401 51.93410034 75.39311401 52.90625 76.85546875 C53.7715332 78.13006958 53.7715332 78.13006958 54.65429688 79.43041992 C56.97713682 83.86581368 56.97372327 88.16229548 56 93 C53.81473658 97.45146251 51.0605479 100.18885145 47 103 C43.17176386 104.27607871 39.60462984 104.11380918 35.6171875 104.078125 C34.71394745 104.07371399 33.8107074 104.06930298 32.88009644 104.0647583 C30.78833724 104.05364449 28.69659022 104.04008614 26.6048584 104.0246582 C23.34793334 104.00237996 20.09109683 103.98738919 16.83412552 103.9751358 C9.04817084 103.94552312 1.26270958 103.89237065 -6.52293015 103.81607819 C-10.63656338 103.77626989 -14.7499655 103.74418882 -18.86376953 103.72900391 C-22.90827964 103.71383261 -26.95221167 103.67944971 -30.99646378 103.63169098 C-32.52014279 103.61696 -34.04390367 103.60896379 -35.56765366 103.60811615 C-50.22815411 103.59169728 -50.22815411 103.59169728 -56 99 C-60.33403631 94.32380293 -61.36837302 90.56798975 -61.27734375 84.34765625 C-60.69430169 79.41232837 -58.31210203 76.23745229 -54.70849609 72.83886719 C-49.5813148 69.59068738 -43.13191519 70.39622701 -37.2890625 70.390625 C-35.95240284 70.37562994 -34.61576162 70.35890001 -33.27914429 70.34051514 C-29.7775178 70.29697691 -26.27614119 70.2768731 -22.77429199 70.26177979 C-19.19443062 70.24215937 -15.61483718 70.20019516 -12.03515625 70.16015625 C-5.02353884 70.08500147 1.98806842 70.03462116 9 70 C-3.30216167 49.87216531 -3.30216167 49.87216531 -16.1003418 30.05761719 C-16.85311401 28.91728027 -16.85311401 28.91728027 -17.62109375 27.75390625 C-18.0586499 27.09720947 -18.49620605 26.4405127 -18.94702148 25.76391602 C-21.84124804 20.91560002 -21.54712366 15.45560445 -21 10 C-18.99625325 5.59175715 -16.41441085 2.92474147 -12.05859375 0.6953125 C-8.03881145 -0.66241283 -4.16226552 -0.68109799 0 0 Z " fill="#F7F8FA" transform="translate(159,134)"/>
<path d="M0 0 C4.84363036 2.56247617 7.63609757 5.75364753 10.5 10.3125 C10.91668945 10.95566162 11.33337891 11.59882324 11.76269531 12.26147461 C16.15219537 19.09957722 20.33768123 26.06842464 24.53833008 33.0234375 C28.66404686 39.84637433 32.88751347 46.59817434 37.1875 53.3125 C41.63003093 60.25150568 46.0190717 67.21759921 50.3125 74.25 C51.00605591 75.38562378 51.00605591 75.38562378 51.71362305 76.54418945 C54.98592626 81.9261599 57.01195235 85.57972452 56 92 C54.00255225 96.49825234 51.35608878 100.53154969 47 103 C41.56438723 104.81187092 36.09504584 104.90374526 30.8125 102.625 C23.78679198 96.06767251 19.02452879 86.99851802 14 78.875 C12.68104855 76.75386958 11.36203637 74.63277692 10.04296875 72.51171875 C9.37442871 71.4345459 8.70588867 70.35737305 8.01708984 69.24755859 C4.79185191 64.05485526 1.55204958 58.87128171 -1.6875 53.6875 C-2.61103271 52.20660889 -2.61103271 52.20660889 -3.55322266 50.69580078 C-6.53575448 45.91789711 -9.53468289 41.15203365 -12.57421875 36.41015625 C-13.13214111 35.53721924 -13.69006348 34.66428223 -14.26489258 33.76489258 C-15.30815624 32.13537644 -16.35589767 30.50871496 -17.40893555 28.88549805 C-17.86953369 28.16531494 -18.33013184 27.44513184 -18.8046875 26.703125 C-19.20671387 26.08083008 -19.60874023 25.45853516 -20.02294922 24.81738281 C-22.32208478 20.5408298 -22.63272637 15.76772685 -22 11 C-20.60721499 7.06040812 -18.47542585 4.46354021 -15.5 1.5625 C-10.43096129 -0.70046371 -5.46157732 -0.96715432 0 0 Z " fill="#FE027D" transform="translate(303,261)"/>
<path d="M0 0 C4.26645871 1.32542559 6.68207286 3.59240111 9.4375 7.125 C11.66968717 11.77620939 12.11435101 15.96119544 11 21 C8.78422705 25.95940317 5.9452584 30.4541824 3 35 C2.14704971 36.33588278 1.29418702 37.67182149 0.44140625 39.0078125 C-1.39006483 41.86058378 -3.23746705 44.70238177 -5.09375 47.5390625 C-8.02206123 52.02008715 -10.89390539 56.53518475 -13.75 61.0625 C-14.23645996 61.83198975 -14.72291992 62.60147949 -15.22412109 63.39428711 C-18.13659562 68.01124778 -21.01910213 72.64559603 -23.8828125 77.29296875 C-24.54571289 78.36474365 -25.20861328 79.43651855 -25.89160156 80.54077148 C-27.18254012 82.62956854 -28.46861094 84.72138445 -29.74902344 86.81665039 C-37.93259773 100.04027077 -37.93259773 100.04027077 -43.25 103.4375 C-48.47255941 104.50575079 -53.43147073 105.27361568 -58.35546875 102.83203125 C-62.43468887 99.94165488 -64.36292875 97.76992403 -66 93 C-67.34304787 84.40713351 -65.04418393 78.98700314 -60.25 72 C-59.36308472 70.64007935 -59.36308472 70.64007935 -58.45825195 69.25268555 C-57.23973292 67.38530878 -56.01160782 65.52416479 -54.77392578 63.66943359 C-52.17606239 59.76012472 -49.68349696 55.78727203 -47.1875 51.8125 C-46.71054688 51.06025146 -46.23359375 50.30800293 -45.7421875 49.53295898 C-40.66593813 41.52179585 -35.71744437 33.4316709 -30.78198242 25.33325195 C-28.87154513 22.21129417 -26.94138363 19.10279931 -25 16 C-24.32259766 14.90671387 -23.64519531 13.81342773 -22.94726562 12.68701172 C-22.26857422 11.62369629 -21.58988281 10.56038086 -20.890625 9.46484375 C-20.28766602 8.51085693 -19.68470703 7.55687012 -19.06347656 6.57397461 C-13.69667782 -0.12055439 -8.10675542 -1.14295825 0 0 Z " fill="#FE027E" transform="translate(204,261)"/>
<path d="M0 0 C4.69492253 1.99312749 7.31485414 4.65773337 10.0703125 8.890625 C12.37812458 15.95829948 11.0711903 20.59390414 7.8046875 27.046875 C6.44668503 29.57224394 5.04237528 32.06955595 3.6328125 34.56640625 C2.89365439 35.90804216 2.15628705 37.25066614 1.4206543 38.59423828 C-0.05492512 41.28277807 -1.54032576 43.9654559 -3.03564453 46.64306641 C-5.34799728 50.78529125 -7.61431711 54.95185199 -9.87573242 59.12207031 C-11.29801252 61.74161234 -12.73013632 64.35556802 -14.1640625 66.96875 C-16.32128171 70.90779714 -18.45137908 74.86054098 -20.5703125 78.8203125 C-21.15143799 79.90328613 -21.73256348 80.98625977 -22.33129883 82.10205078 C-23.44699768 84.18298166 -24.55905665 86.2658699 -25.66674805 88.35107422 C-34.14940601 104.14395747 -34.14940601 104.14395747 -41.1171875 106.37890625 C-47.94816464 107.28367143 -52.59927624 106.5454923 -58.1171875 102.37890625 C-61.98298727 97.22450656 -62.43116305 92.72528236 -62.1171875 86.37890625 C-61.02246094 83.45483398 -61.02246094 83.45483398 -59.4765625 80.5625 C-58.90695801 79.48057373 -58.33735352 78.39864746 -57.75048828 77.28393555 C-57.12899902 76.13965088 -56.50750977 74.99536621 -55.8671875 73.81640625 C-55.22133546 72.60323623 -54.57665702 71.38944075 -53.93310547 70.17504883 C-52.01411303 66.56552397 -50.06806987 62.97129789 -48.1171875 59.37890625 C-47.59479492 58.41404297 -47.07240234 57.44917969 -46.53417969 56.45507812 C-44.63778213 52.95736298 -42.73640107 49.46267038 -40.81518555 45.97851562 C-37.80988902 40.5239248 -34.87634654 35.03674624 -31.98828125 29.51953125 C-31.2675727 28.14811066 -30.54670663 26.77677285 -29.82568359 25.40551758 C-28.76011182 23.37890854 -27.69759982 21.35102225 -26.64532471 19.31747437 C-25.66630942 17.42596761 -24.67602814 15.54074227 -23.68359375 13.65625 C-23.11584229 12.56562256 -22.54809082 11.47499512 -21.96313477 10.35131836 C-16.79367453 2.02726356 -9.85891463 -2.89219082 0 0 Z " fill="#6FB5FC" transform="translate(294.1171875,102.62109375)"/>
<path d="M0 0 C0.88666855 -0.0065712 1.7733371 -0.0131424 2.68687439 -0.01991272 C5.61831755 -0.03960787 8.5497096 -0.05129913 11.48120117 -0.0612793 C12.98508676 -0.06739259 12.98508676 -0.06739259 14.51935387 -0.07362938 C19.82474943 -0.09447273 25.13011925 -0.10878267 30.43554688 -0.11816406 C35.90990362 -0.1292324 41.38385434 -0.16364234 46.85806751 -0.20333576 C51.07289885 -0.22949833 55.28763329 -0.23785553 59.50253868 -0.24144554 C61.52031894 -0.24631141 63.53809488 -0.2579254 65.55579567 -0.27648354 C68.38257571 -0.30086993 71.20830289 -0.29991096 74.03515625 -0.29296875 C74.86397308 -0.30577881 75.69278992 -0.31858887 76.54672241 -0.33178711 C82.23587393 -0.28100657 85.51193008 0.94112284 90.21166992 4.17700195 C94.15655026 8.38487432 94.52167542 12.46500687 94.42651367 18.15356445 C93.95103082 22.63174843 92.01368511 25.43668024 88.77416992 28.42700195 C84.35466672 31.44519926 81.56034357 32.42896829 76.14331055 32.49584961 C74.91261841 32.5157193 73.68192627 32.53558899 72.41394043 32.55606079 C71.06526906 32.56797311 69.71659546 32.57963368 68.36791992 32.59106445 C66.96096739 32.60983331 65.55402544 32.62941066 64.14709473 32.64974976 C60.42279742 32.70117466 56.69846119 32.74063446 52.97399902 32.77789307 C49.2953042 32.81709569 45.61678937 32.86891022 41.93823242 32.91918945 C35.45849384 33.00615934 28.97883902 33.06753 22.498703 33.1156044 C18.34036253 33.14929616 14.18375854 33.2115624 10.02622223 33.29966927 C6.82784397 33.36411429 3.62911036 33.40454428 0.43041992 33.45043945 C-0.7216394 33.48255524 -1.87369873 33.51467102 -3.06066895 33.54776001 C-9.32059219 33.61182148 -13.05887499 33.4340935 -17.78833008 29.17700195 C-22.018203 24.48984547 -23.20674493 20.79140219 -23.13598633 14.5949707 C-22.37562052 9.30658376 -19.40843645 5.40196043 -15.22583008 2.23950195 C-10.18866693 0.04381545 -5.4367695 0.01751004 0 0 Z " fill="#024BAB" transform="translate(303.788330078125,204.822998046875)"/>
<path d="M0 0 C7.4639398 3.7319699 11.22967254 10.76663761 15.5 17.625 C16.57672428 19.34250976 17.65354992 21.05995597 18.73046875 22.77734375 C19.27622559 23.64987793 19.82198242 24.52241211 20.38427734 25.42138672 C22.84705072 29.35185097 25.33100442 33.26884158 27.8125 37.1875 C31.22209193 42.57681807 34.61280082 47.97742901 37.984375 53.390625 C38.66137451 54.47706299 39.33837402 55.56350098 40.03588867 56.68286133 C41.36321794 58.81448721 42.68896232 60.947101 44.01293945 63.08081055 C44.92112427 64.53934448 44.92112427 64.53934448 45.84765625 66.02734375 C46.38398682 66.89093506 46.92031738 67.75452637 47.47290039 68.64428711 C48.89679613 70.8407971 50.4017638 72.92801269 52 75 C51.67 75.66 51.34 76.32 51 77 C50.401875 76.525625 49.80375 76.05125 49.1875 75.5625 C45.63074526 73.0219609 43.03597459 72.9550535 38.78291321 73.24447632 C14.47343775 74.89775263 14.47343775 74.89775263 7.45068359 70.34863281 C3.44358406 65.88378759 1.40605901 60.48823537 -0.72900391 54.94921875 C-2.9960796 49.68869735 -6.2664175 45.06302864 -9.4375 40.3125 C-22.64209105 19.9764777 -22.64209105 19.9764777 -21 10 C-18.99625325 5.59175715 -16.41441085 2.92474147 -12.05859375 0.6953125 C-8.03881145 -0.66241283 -4.16226552 -0.68109799 0 0 Z " fill="#034CAB" transform="translate(159,134)"/>
<path d="M0 0 C5.30101378 3.16677954 7.87574047 6.32298285 10.59814453 11.80297852 C10.99855957 12.56392822 11.39897461 13.32487793 11.81152344 14.10888672 C12.70720401 15.81141864 13.59461269 17.51831981 14.47509766 19.22875977 C16.75541054 23.62289594 19.11680737 27.97259478 21.47070312 32.32763672 C23.82217013 36.68044983 26.1586745 41.04119563 28.48779297 45.40600586 C29.74484858 47.69903728 31.07210788 49.91397052 32.44970703 52.13500977 C33.97314453 55.11547852 33.97314453 55.11547852 33.76586914 56.93017578 C32.71905114 59.81593738 31.30374409 62.3768107 29.81298828 65.06079102 C29.18457031 66.22094727 28.55615234 67.38110352 27.90869141 68.57641602 C26.91542905 70.40509388 25.91673238 72.22961123 24.8996582 74.04516602 C20.80300593 81.38329065 17.73847381 87.51109658 18.97314453 96.11547852 C16.20108928 92.69076487 14.19068937 88.95179889 12.16455078 85.06079102 C11.8016243 84.37107712 11.43869781 83.68136322 11.06477356 82.9707489 C10.28813049 81.49425181 9.51298205 80.01696773 8.73919678 78.53897095 C6.71394457 74.67123119 4.67735401 70.80947264 2.64111328 66.94750977 C2.23830139 66.1830101 1.8354895 65.41851044 1.42047119 64.63084412 C-1.88385719 58.36728417 -5.2479082 52.13798872 -8.65185547 45.92797852 C-9.12526367 45.05971436 -9.59867188 44.1914502 -10.08642578 43.296875 C-12.19439648 39.43488391 -14.32176017 35.58702147 -16.49951172 31.76391602 C-24.49287436 17.59061031 -24.49287436 17.59061031 -22.45263672 9.97094727 C-20.5179561 5.25242756 -17.69100185 2.39819472 -13.23388672 -0.03295898 C-8.70002307 -1.78230814 -4.50068846 -1.96410435 0 0 Z " fill="#FE027D" transform="translate(214.02685546875,102.884521484375)"/>
<path d="M0 0 C3.5945576 0.01043488 7.18912286 0.0148397 10.78369141 0.01983643 C17.77199054 0.03039704 24.76025983 0.04734498 31.74853516 0.06866455 C30.97815918 0.65188477 30.2077832 1.23510498 29.4140625 1.83599854 C27.0897207 3.78288494 25.68618361 5.26544125 24.10009766 7.7913208 C23.43276611 8.83932861 23.43276611 8.83932861 22.75195312 9.9085083 C22.2970752 10.64198486 21.84219727 11.37546143 21.37353516 12.13116455 C20.89674316 12.88397705 20.41995117 13.63678955 19.92871094 14.41241455 C18.52783919 16.62655835 17.13777487 18.84721092 15.74853516 21.06866455 C14.37752876 23.23789879 13.00070084 25.4033276 11.62353516 27.56866455 C11.08470703 28.42460205 10.54587891 29.28053955 9.99072266 30.16241455 C8.74853516 32.06866455 8.74853516 32.06866455 7.74853516 33.06866455 C5.8784913 33.18354499 4.00410415 33.2283221 2.13061523 33.2456665 C0.32787895 33.26491936 0.32787895 33.26491936 -1.51127625 33.28456116 C-2.82159317 33.29194809 -4.1319101 33.29933502 -5.48193359 33.3069458 C-6.14651392 33.31102133 -6.81109425 33.31509686 -7.49581337 33.31929588 C-11.01698117 33.34018153 -14.53810977 33.35446929 -18.05932617 33.36383057 C-21.68991302 33.37486794 -25.31988234 33.40922845 -28.95025158 33.44900227 C-31.74619142 33.47521265 -34.54198561 33.48352651 -37.33803749 33.48711205 C-39.32442081 33.4943277 -41.31070442 33.52075475 -43.29692078 33.54750061 C-54.51059009 33.52055683 -54.51059009 33.52055683 -59.25146484 29.06866455 C-62.76448786 24.68208233 -63.91497392 19.71948425 -63.63818359 14.1741333 C-62.61062408 8.57964264 -58.690574 5.22276842 -54.25146484 2.06866455 C-50.83022839 0.35804632 -46.92082667 0.67200092 -43.14990234 0.5100708 C-42.18756683 0.46781876 -41.22523132 0.42556671 -40.23373413 0.3820343 C-26.82844016 -0.13989823 -13.41278143 -0.04321931 0 0 Z " fill="#6FB5FB" transform="translate(161.25146484375,260.93133544921875)"/>
<path d="M0 0 C0.33 0 0.66 0 1 0 C1.09039551 0.95942505 1.09039551 0.95942505 1.18261719 1.93823242 C2.4151965 11.17514213 6.57280907 18.12948138 11.27929688 26.04321289 C12.27079481 27.72338321 13.23733585 29.41820256 14.203125 31.11328125 C14.78739258 32.10110596 15.37166016 33.08893066 15.97363281 34.10668945 C17.31464578 37.88698077 16.63662487 39.39516972 15 43 C14.09781771 44.86652084 13.15004666 46.7115148 12.1640625 48.53515625 C11.31811523 50.10595947 11.31811523 50.10595947 10.45507812 51.70849609 C9.85115234 52.81531738 9.24722656 53.92213867 8.625 55.0625 C7.69204102 56.77687256 7.69204102 56.77687256 6.74023438 58.52587891 C5.45907859 60.87560443 4.17311213 63.22261792 2.88378906 65.56787109 C1.67178463 67.77605646 0.46497346 69.9871044 -0.73535156 72.20166016 C-2.30852486 75.10135333 -3.90083765 77.9895772 -5.5 80.875 C-6.20068604 82.17449585 -6.20068604 82.17449585 -6.91552734 83.50024414 C-9.6130964 88.2988694 -11.86497939 91.55038558 -17 94 C-22.81607681 94.95993501 -28.23069436 94.79313701 -33.625 92.375 C-37.95793245 88.04206755 -39.18875479 84.50984083 -39.4296875 78.45703125 C-39.35043895 71.45040249 -36.92708404 67.0050302 -33.25 61.1875 C-32.04461043 59.17400591 -30.84288168 57.15831643 -29.64453125 55.140625 C-29.03303223 54.12291016 -28.4215332 53.10519531 -27.79150391 52.05664062 C-24.99025225 47.27718155 -22.46177177 42.36728401 -19.9375 37.4375 C-15.35880492 28.55663429 -10.64300873 19.76067915 -5.83178711 11.00366211 C-5.35878174 10.14264893 -4.88577637 9.28163574 -4.3984375 8.39453125 C-3.98255371 7.64018799 -3.56666992 6.88584473 -3.13818359 6.10864258 C-2.04945503 4.09162228 -1.01298687 2.0559386 0 0 Z " fill="#024BAB" transform="translate(231,302)"/>
<path d="M0 0 C12.00036928 -0.0748871 23.99959789 -0.063861 36 0 C37.5402887 0.00776459 37.5402887 0.00776459 39.11169434 0.01568604 C45.62574548 0.05225119 52.1388458 0.1158773 58.65234375 0.20852661 C60.7958212 0.2361117 62.93939759 0.25687525 65.08300781 0.27072144 C68.11581336 0.29194943 71.14727997 0.33828401 74.1796875 0.390625 C75.08451874 0.39185867 75.98934998 0.39309235 76.92160034 0.3943634 C82.42907711 0.5227669 85.63282815 1.33133972 90 5 C94.3796389 9.971482 95.36205226 12.8719758 95.27734375 19.39453125 C94.73230115 24.51486098 92.4792376 27.62901077 88.69799805 31.13354492 C83.60735182 34.36040738 77.28290814 33.83820737 71.45703125 33.98828125 C70.1376506 34.02293991 68.81826996 34.05759857 67.45890808 34.0933075 C64.66918338 34.15770889 61.87984029 34.20114807 59.08959961 34.2355957 C56.2432503 34.27549856 53.40558904 34.36577554 50.56225586 34.50219727 C27.69924536 35.5760841 27.69924536 35.5760841 21.66418457 31.37338257 C17.99611139 27.465337 15.81801116 23.08226675 13.88885498 18.12394714 C12.52139895 14.85636763 10.61421745 12.11315294 8.625 9.1875 C8.03976562 8.27355469 7.45453125 7.35960937 6.8515625 6.41796875 C4.8338754 3.78305669 2.61310094 2.02631717 0 0 Z " fill="#6FB5FD" transform="translate(303,261)"/>
<path d="M0 0 C3.5 1.6875 3.5 1.6875 6 4 C7.175625 4.99 7.175625 4.99 8.375 6 C10.9588012 10.77009452 10.87070291 15.70535807 10 21 C7.07558589 28.56366792 2.11937798 35.40420671 -2.34423828 42.11791992 C-5.51275322 46.91851897 -8.35761769 51.57976933 -10.68359375 56.84765625 C-15.76734349 67.60377069 -15.76734349 67.60377069 -21 71 C-30.37177902 73.36636458 -39.99258693 72.50017428 -49.54931641 71.98095703 C-54.06663425 72.00588634 -57.00646302 72.96965067 -61 75 C-59.34925145 70.29536664 -56.86354961 66.27589811 -54.25 62.0625 C-53.76756836 61.27891113 -53.28513672 60.49532227 -52.78808594 59.68798828 C-48.4240052 52.62649002 -43.97328083 45.61999196 -39.4909668 38.63305664 C-36.27614313 33.61435727 -33.11467264 28.57010012 -30.01953125 23.4765625 C-29.35856445 22.39584473 -28.69759766 21.31512695 -28.01660156 20.20166016 C-26.74693877 18.12140555 -25.48661326 16.03541283 -24.23730469 13.94287109 C-17.83972292 3.50033239 -12.86947621 -2.09419849 0 0 Z " fill="#F7F8FA" transform="translate(348,134)"/>
</svg>
